<?xml version="1.0" encoding="UTF-8" standalone="no"?><svg xmlns="http://www.w3.org/2000/svg" xmlns:xlink="http://www.w3.org/1999/xlink" contentStyleType="text/css" height="513px" preserveAspectRatio="none" style="width:763px;height:513px;background:#FFFFFF;" version="1.1" viewBox="0 0 763 513" width="763px" zoomAndPan="magnify"><defs/><g><rect fill="none" height="11.6406" style="stroke:none;stroke-width:1.0;" width="101" x="659" y="0"/><text fill="#888888" font-family="sans-serif" font-size="10" lengthAdjust="spacing" textLength="101" x="659" y="9.2822">GSI/FAIR 07.11.2022</text><rect fill="none" height="26.2969" id="_title" style="stroke:none;stroke-width:1.0;" width="505" x="127.5" y="17.6406"/><text fill="#000000" font-family="sans-serif" font-size="14" font-weight="bold" lengthAdjust="spacing" textLength="495" x="132.5" y="35.6357">Reference Implementation with USB-Serial and Spring WebFlux</text><rect fill="#DDDDDD" height="26.2969" id="_legend" rx="7.5" ry="7.5" style="stroke:#000000;stroke-width:1.0;" width="404" x="344" y="61.9375"/><text fill="#000000" font-family="sans-serif" font-size="14" lengthAdjust="spacing" textLength="394" x="349" y="79.9326">ARM-based MC Teensy 4.1 (Arduino) or Raspberry PI Pico</text><text fill="#000000" font-family="sans-serif" font-size="12" lengthAdjust="spacing" textLength="29" x="27" y="117.373">GPIO</text><text fill="#000000" font-family="sans-serif" font-size="12" lengthAdjust="spacing" textLength="4" x="52" y="233.3418"> </text><text fill="#000000" font-family="sans-serif" font-size="12" lengthAdjust="spacing" textLength="51" x="5" y="372.9199">Network</text><rect fill="#ADD8E6" height="182.7422" style="stroke:#ADD8E6;stroke-width:1.0;" width="532.5" x="212.5" y="140.7188"/><rect fill="#90EE90" height="53.9688" style="stroke:#90EE90;stroke-width:1.0;" width="135" x="183" y="402.668"/><rect fill="#808080" height="5" style="stroke:#181818;stroke-width:1.0;" width="582" x="173" y="110.7188"/><rect fill="#E2E2F0" height="5" style="stroke:#181818;stroke-width:1.0;" width="694" x="61" y="366.2656"/><path d="M252.5,115.7188 L252.5,145.7188 " fill="none" style="stroke:#181818;stroke-width:1.0;"/><path d="M378,115.7188 L378,145.7188 " fill="none" style="stroke:#181818;stroke-width:1.0;"/><path d="M474,115.7188 L474,145.7188 " fill="none" style="stroke:#181818;stroke-width:1.0;"/><path d="M639.5,115.7188 L639.5,151.7188 " fill="none" style="stroke:#181818;stroke-width:1.0;"/><path d="M637.5,185.6875 L637.5,226.6875 " fill="none" style="stroke:#181818;stroke-width:1.0;"/><path d="M637.5,226.6875 L637.5,274.4922 " fill="none" style="stroke:#181818;stroke-width:1.0;"/><text fill="#000000" font-family="sans-serif" font-size="11" lengthAdjust="spacing" textLength="61" x="607" y="254.3979">USB-Serial</text><path d="M635.5,318.4609 L635.5,366.2656 " fill="none" style="stroke:#181818;stroke-width:1.0;"/><text fill="#000000" font-family="sans-serif" font-size="11" lengthAdjust="spacing" textLength="45" x="613" y="346.1714">WebFlux</text><path d="M119,371.2656 L119,407.668 " fill="none" style="stroke:#181818;stroke-width:1.0;"/><path d="M252.5,371.2656 L252.5,407.668 " fill="none" style="stroke:#181818;stroke-width:1.0;"/><text fill="#000000" font-family="sans-serif" font-size="11" lengthAdjust="spacing" textLength="45" x="230" y="390.7749">WebFlux</text><ellipse cx="250.5" cy="161.7188" fill="#F1F1F1" rx="12" ry="12" style="stroke:#181818;stroke-width:0.5;"/><polygon fill="#181818" points="246.5,149.7188,252.5,144.7188,250.5,149.7188,252.5,154.7188,246.5,149.7188" style="stroke:#181818;stroke-width:1.0;"/><text fill="#000000" font-family="sans-serif" font-size="12" lengthAdjust="spacing" textLength="66" x="217.5" y="188.8574">Encoder_1</text><ellipse cx="376" cy="161.7188" fill="#F1F1F1" rx="12" ry="12" style="stroke:#181818;stroke-width:0.5;"/><polygon fill="#181818" points="372,149.7188,378,144.7188,376,149.7188,378,154.7188,372,149.7188" style="stroke:#181818;stroke-width:1.0;"/><text fill="#000000" font-family="sans-serif" font-size="12" lengthAdjust="spacing" textLength="66" x="343" y="188.8574">Encoder_2</text><ellipse cx="472" cy="161.7188" fill="#F1F1F1" rx="12" ry="12" style="stroke:#181818;stroke-width:0.5;"/><polygon fill="#181818" points="468,149.7188,474,144.7188,472,149.7188,474,154.7188,468,149.7188" style="stroke:#181818;stroke-width:1.0;"/><text fill="#000000" font-family="sans-serif" font-size="12" lengthAdjust="spacing" textLength="66" x="439" y="188.8574">Encoder_n</text><rect fill="#F1F1F1" height="33.9688" style="stroke:#181818;stroke-width:0.5;" width="114" x="580.5" y="151.7188"/><text fill="#000000" font-family="sans-serif" font-size="12" lengthAdjust="spacing" textLength="94" x="590.5" y="172.8574">MicroController</text><polygon fill="#F1F1F1" points="535,284.4922,545,274.4922,740,274.4922,740,308.4609,730,318.4609,535,318.4609,535,284.4922" style="stroke:#181818;stroke-width:0.5;"/><line style="stroke:#181818;stroke-width:0.5;" x1="730" x2="740" y1="284.4922" y2="274.4922"/><line style="stroke:#181818;stroke-width:0.5;" x1="535" x2="730" y1="284.4922" y2="284.4922"/><line style="stroke:#181818;stroke-width:0.5;" x1="730" x2="730" y1="284.4922" y2="318.4609"/><text fill="#000000" font-family="sans-serif" font-size="12" lengthAdjust="spacing" textLength="165" x="550" y="305.6309">EncoderPositionsServerPC</text><path d="M84.7875,417.7317 C86.5482,410.653 92.027,410.7834 96.6278,414.6629 C97.8513,409.5606 102.0702,407.8946 106.4091,410.9085 C109.3182,405.7313 114.0185,404.324 117.7306,410.0769 C121.0772,405.803 125.9286,405.5211 128.2657,411.1508 C133.428,406.8658 138.0114,408.7698 139.65,414.9748 C144.7695,410.0895 148.3086,411.3 150.968,417.4891 C159.981,416.8804 162.9771,422.2681 160.6964,430.2615 C164.8986,438.5016 161.3999,444.7721 152.1513,445.4394 C149.1761,451.5785 143.8239,451.146 140.2091,446.1238 C136.3235,451.0146 132.8083,451.4104 129.1916,445.8407 C127.5437,452.9801 121.7235,453.8209 117.1744,448.6796 C113.6275,454.1892 108.5317,453.0759 106.0013,447.6419 C102.3311,451.6887 97.9844,451.4637 96.3167,445.6709 C93.3613,450.7187 87.8505,451.5021 84.9864,445.5766 C76.2407,443.0012 75.6305,436.2599 81.9684,430.6374 C77.2476,425.2468 77.278,420.4507 84.7875,417.7317 " fill="#F1F1F1" style="stroke:#181818;stroke-width:0.5;"/><text fill="#000000" font-family="sans-serif" font-size="12" lengthAdjust="spacing" textLength="52" x="91" y="433.8066">ACC_Net</text><polygon fill="#F1F1F1" points="188,417.668,198,407.668,313,407.668,313,441.6367,303,451.6367,188,451.6367,188,417.668" style="stroke:#181818;stroke-width:0.5;"/><line style="stroke:#181818;stroke-width:0.5;" x1="303" x2="313" y1="417.668" y2="407.668"/><line style="stroke:#181818;stroke-width:0.5;" x1="188" x2="303" y1="417.668" y2="417.668"/><line style="stroke:#181818;stroke-width:0.5;" x1="303" x2="303" y1="417.668" y2="451.6367"/><text fill="#000000" font-family="sans-serif" font-size="12" lengthAdjust="spacing" textLength="85" x="203" y="438.8066">PotiboardApp</text><rect fill="none" height="11.6406" style="stroke:none;stroke-width:1.0;" width="310" x="225" y="499.0391"/><text fill="#888888" font-family="sans-serif" font-size="10" lengthAdjust="spacing" textLength="310" x="225" y="508.3213">System/Network Diagram Potiboard 1., A. Bloch-Späth, M.Stein</text><!--MD5=[cdd835bb6d69144df0a994cae11277c6]
@startuml

header GSI/FAIR 07.11.2022
footer System/Network Diagram Potiboard 1., A. Bloch-Späth, M.Stein
title Reference Implementation with USB-Serial and Spring WebFlux

 legend top right
   ARM-based MC Teensy 4.1 (Arduino) or Raspberry PI Pico
 endlegend

nwdiag {
  network GPIO {
    group {
      color = "lightblue";
       Encoder_1;
       Encoder_2;
       Encoder_n;
      MicroController;
      EncoderPositionsServerPC;
    }
    color = "gray"
    Encoder_1 [shape = control];
    Encoder_2 [shape = control];
    Encoder_n [shape = control];
    MicroController [shape = component];
    MicroController - - EncoderPositionsServerPC;
    EncoderPositionsServerPC [shape = node, address = USB-Serial];
  }

  network Network {
    ACC_Net [shape = cloud];
    EncoderPositionsServerPC [shape = node, address = WebFlux];
    PotiboardApp [shape = node, address = WebFlux];
    group {
      color = "lightgreen";
      PotiboardApp;
    }
  }
}
@enduml

PlantUML version 1.2022.12(Sun Oct 23 20:12:26 CEST 2022)
(GPL source distribution)
Java Runtime: OpenJDK Runtime Environment
JVM: OpenJDK 64-Bit Server VM
Default Encoding: UTF-8
Language: en
Country: US
--></g></svg>